<svg width="125" height="20" viewBox="0 0 125 20" fill="none" xmlns="http://www.w3.org/2000/svg">
<path d="M7.67617 16.53C6.13814 16.53 4.79586 16.2706 3.64932 15.7518C2.50279 15.2191 1.60794 14.476 0.964764 13.5226C0.321588 12.5552 0 11.4476 0 10.1998C0 8.92394 0.321588 7.80932 0.964764 6.85594C1.60794 5.90256 2.50279 5.15948 3.64932 4.62671C4.79586 4.09394 6.13814 3.82755 7.67617 3.82755C9.20021 3.82755 10.5355 4.09394 11.682 4.62671C12.8425 5.15948 13.7444 5.90256 14.3876 6.85594C15.0307 7.80932 15.3523 8.92394 15.3523 10.1998C15.3523 11.4476 15.0307 12.5552 14.3876 13.5226C13.7444 14.476 12.8425 15.2191 11.682 15.7518C10.5355 16.2706 9.20021 16.53 7.67617 16.53ZM7.67617 13.3544C8.37527 13.3544 8.96951 13.2282 9.45888 12.9758C9.96224 12.7234 10.3467 12.3589 10.6124 11.8822C10.8781 11.4055 11.0109 10.8447 11.0109 10.1998C11.0109 9.52681 10.8781 8.95899 10.6124 8.49632C10.3467 8.01963 9.96224 7.6551 9.45888 7.40273C8.96951 7.15037 8.37527 7.02418 7.67617 7.02418C6.97706 7.02418 6.37583 7.15037 5.87248 7.40273C5.36912 7.6551 4.98461 8.01963 4.71895 8.49632C4.45329 8.95899 4.32046 9.5198 4.32046 10.1788C4.32046 10.8377 4.45329 11.4055 4.71895 11.8822C4.98461 12.3589 5.36912 12.7234 5.87248 12.9758C6.37583 13.2282 6.97706 13.3544 7.67617 13.3544Z" fill="#EA0A23"/>
<path d="M17.1559 0H21.4553V16.1935H17.1559V0Z" fill="#EA0A23"/>
<path d="M30.8384 16.53C29.3842 16.53 28.0839 16.2636 26.9374 15.7308C25.8048 15.198 24.91 14.455 24.2528 13.5016C23.5956 12.5342 23.2671 11.4125 23.2671 10.1367C23.2671 8.88889 23.5817 7.7953 24.2109 6.85594C24.84 5.90256 25.6999 5.15948 26.7905 4.62671C27.8951 4.09394 29.1395 3.82755 30.5238 3.82755C31.9639 3.82755 33.1874 4.14301 34.1941 4.77392C35.2148 5.39082 35.9977 6.26709 36.5431 7.40273C37.1023 8.53838 37.382 9.87732 37.382 11.4196H26.7276V8.83281H34.9701L33.5649 9.73712C33.5089 9.12022 33.3551 8.60147 33.1035 8.18086C32.8518 7.74623 32.5162 7.41675 32.0967 7.19243C31.6913 6.9681 31.2019 6.85594 30.6286 6.85594C29.9994 6.85594 29.4611 6.98212 29.0137 7.23449C28.5663 7.48686 28.2167 7.83736 27.965 8.28601C27.7134 8.72064 27.5875 9.23239 27.5875 9.82124C27.5875 10.5783 27.7553 11.2233 28.0909 11.756C28.4404 12.2748 28.9438 12.6744 29.6009 12.9548C30.2721 13.2352 31.09 13.3754 32.0548 13.3754C32.9357 13.3754 33.8096 13.2632 34.6764 13.0389C35.5573 12.8006 36.3543 12.4711 37.0674 12.0505V14.7844C36.2424 15.3453 35.2986 15.7799 34.236 16.0883C33.1874 16.3828 32.0548 16.53 30.8384 16.53Z" fill="#EA0A23"/>
<path d="M49.6801 13.1651V11.1251L49.8269 10.6204V7.67613L49.6801 7.23449V4.18507H53.9586V12.9968C53.9586 14.469 53.6161 15.7308 52.9309 16.7823C52.2458 17.8339 51.288 18.633 50.0576 19.1798C48.8412 19.7266 47.401 20 45.7371 20C44.6326 20 43.6049 19.8528 42.6541 19.5584C41.7173 19.278 40.7805 18.8573 39.8437 18.2965V15.0578C40.7106 15.7028 41.6194 16.1654 42.5702 16.4458C43.535 16.7403 44.4997 16.8875 45.4645 16.8875C46.8347 16.8875 47.8764 16.5931 48.5895 16.0042C49.3166 15.4154 49.6801 14.469 49.6801 13.1651ZM44.5417 14.9317C43.4091 14.9317 42.4024 14.7003 41.5215 14.2376C40.6407 13.775 39.9416 13.13 39.4242 12.3028C38.9209 11.4616 38.6692 10.4872 38.6692 9.3796C38.6692 8.25797 38.9209 7.28356 39.4242 6.45636C39.9416 5.62916 40.6407 4.98423 41.5215 4.52156C42.4024 4.05889 43.4091 3.82755 44.5417 3.82755C45.3806 3.82755 46.1496 3.96074 46.8487 4.22713C47.5478 4.4795 48.17 4.82299 48.7153 5.25762C49.2606 5.67823 49.7151 6.1409 50.0786 6.64564C50.4561 7.13635 50.7427 7.62706 50.9385 8.11777C51.1342 8.60848 51.2321 9.04311 51.2321 9.42166C51.2321 9.94041 51.0783 10.5152 50.7707 11.1462C50.4771 11.7771 50.0436 12.38 49.4704 12.9548C48.8971 13.5296 48.191 14.0063 47.3521 14.3849C46.5271 14.7494 45.5903 14.9317 44.5417 14.9317ZM45.9888 12.0084C46.8138 12.0084 47.5478 11.7911 48.191 11.3565C48.8342 10.9218 49.3795 10.2629 49.8269 9.3796C49.3655 8.4823 48.8132 7.82334 48.17 7.40273C47.5269 6.9681 46.7998 6.75079 45.9888 6.75079C45.3736 6.75079 44.8353 6.85594 44.3739 7.06625C43.9265 7.27655 43.5839 7.585 43.3462 7.99159C43.1085 8.38416 42.9897 8.84683 42.9897 9.3796C42.9897 9.89835 43.1085 10.361 43.3462 10.7676C43.5839 11.1602 43.9265 11.4686 44.3739 11.693C44.8213 11.9033 45.3596 12.0084 45.9888 12.0084Z" fill="#EA0A23"/>
<path d="M65.6087 9.52681C65.6087 8.74167 65.3011 8.1388 64.6859 7.71819C64.0707 7.29758 63.0849 7.08728 61.7287 7.08728C60.8897 7.08728 60.0368 7.18542 59.1699 7.3817C58.317 7.56397 57.5131 7.84437 56.758 8.22292V5.11041C57.7228 4.66176 58.6945 4.33929 59.6733 4.14301C60.652 3.9327 61.6797 3.82755 62.7563 3.82755C64.2105 3.82755 65.4479 4.04487 66.4686 4.4795C67.5033 4.90011 68.3142 5.517 68.9015 6.33018C69.4887 7.12934 69.7823 8.11076 69.7823 9.27445V16.1935H65.6297L65.6087 9.52681ZM60.9107 8.60147C62.7424 8.54539 64.1336 8.68559 65.0844 9.02208C66.0491 9.35857 66.5804 9.61094 66.6783 9.77918C66.7762 9.94742 66.8251 10.8728 66.8251 12.5552C66.8251 12.8917 66.6853 13.2913 66.4057 13.7539C66.126 14.2166 65.7275 14.6583 65.2102 15.0789C64.6929 15.4995 64.0707 15.85 63.3436 16.1304C62.6165 16.3968 61.8056 16.53 60.9107 16.53C59.932 16.53 59.0511 16.3757 58.2681 16.0673C57.4991 15.7448 56.8909 15.2892 56.4434 14.7003C55.996 14.0974 55.7723 13.3894 55.7723 12.5762C55.7723 11.7631 55.996 11.062 56.4434 10.4732C56.9048 9.88433 57.5201 9.43568 58.2891 9.12723C59.0721 8.80477 59.9459 8.62951 60.9107 8.60147ZM62.9241 10.9148C61.6518 10.9148 60.7779 11.048 60.3025 11.3144C59.8271 11.5808 59.5894 11.9243 59.5894 12.3449C59.5894 12.7655 59.8201 13.109 60.2815 13.3754C60.7569 13.6418 61.4141 13.775 62.253 13.775C63.2317 13.775 64.0357 13.5296 64.6649 13.0389C65.2941 12.5342 65.6087 11.9453 65.6087 11.2723C65.1053 11.034 64.2105 10.9148 62.9241 10.9148Z" fill="#EA0A23"/>
<path d="M87.32 13.775H85.9777L89.3753 4.18507H93.6539L89.1656 16.1935H84.8032L81.049 6.22503H82.4752L78.679 16.1935H74.3166L69.8284 4.18507H74.1488L77.5255 13.775H76.1832L79.7277 4.18507H83.8175L87.32 13.775Z" fill="#121212"/>
<path d="M101.397 16.53C99.9432 16.53 98.6429 16.2636 97.4964 15.7308C96.3638 15.198 95.469 14.455 94.8118 13.5016C94.1546 12.5342 93.8261 11.4125 93.8261 10.1367C93.8261 8.88889 94.1407 7.7953 94.7699 6.85594C95.3991 5.90256 96.259 5.15948 97.3496 4.62671C98.4541 4.09394 99.6985 3.82755 101.083 3.82755C102.523 3.82755 103.746 4.14301 104.753 4.77392C105.774 5.39082 106.557 6.26709 107.102 7.40273C107.661 8.53838 107.941 9.87732 107.941 11.4196H97.2866V8.83281H105.529L104.124 9.73712C104.068 9.12022 103.914 8.60147 103.662 8.18086C103.411 7.74623 103.075 7.41675 102.656 7.19243C102.25 6.9681 101.761 6.85594 101.188 6.85594C100.558 6.85594 100.02 6.98212 99.5727 7.23449C99.1253 7.48686 98.7757 7.83736 98.5241 8.28601C98.2724 8.72064 98.1465 9.23239 98.1465 9.82124C98.1465 10.5783 98.3143 11.2233 98.6499 11.756C98.9994 12.2748 99.5028 12.6744 100.16 12.9548C100.831 13.2352 101.649 13.3754 102.614 13.3754C103.495 13.3754 104.369 13.2632 105.235 13.0389C106.116 12.8006 106.913 12.4711 107.626 12.0505V14.7844C106.801 15.3453 105.858 15.7799 104.795 16.0883C103.746 16.3828 102.614 16.53 101.397 16.53Z" fill="#121212"/>
<path d="M109.774 0H114.073V7.67613L113.507 8.76972V11.7981L114.073 12.8496V16.1935H109.774V0ZM112.689 10.1998C112.885 8.8959 113.269 7.77427 113.842 6.83491C114.416 5.88153 115.15 5.14546 116.044 4.62671C116.953 4.09394 117.967 3.82755 119.086 3.82755C120.26 3.82755 121.288 4.09394 122.169 4.62671C123.063 5.15948 123.756 5.90256 124.245 6.85594C124.748 7.80932 125 8.92394 125 10.1998C125 11.4476 124.748 12.5552 124.245 13.5226C123.756 14.476 123.063 15.2191 122.169 15.7518C121.288 16.2706 120.26 16.53 119.086 16.53C117.953 16.53 116.939 16.2706 116.044 15.7518C115.15 15.2191 114.416 14.476 113.842 13.5226C113.269 12.5692 112.885 11.4616 112.689 10.1998ZM120.68 10.1998C120.68 9.59692 120.554 9.06414 120.302 8.60147C120.064 8.1388 119.729 7.77427 119.295 7.50789C118.862 7.2415 118.359 7.10831 117.785 7.10831C117.212 7.10831 116.667 7.2415 116.149 7.50789C115.632 7.77427 115.178 8.1388 114.786 8.60147C114.395 9.06414 114.094 9.59692 113.884 10.1998C114.094 10.7886 114.395 11.3144 114.786 11.7771C115.178 12.2397 115.632 12.6043 116.149 12.8707C116.667 13.123 117.212 13.2492 117.785 13.2492C118.359 13.2492 118.862 13.123 119.295 12.8707C119.729 12.6043 120.064 12.2397 120.302 11.7771C120.554 11.3144 120.68 10.7886 120.68 10.1998Z" fill="#121212"/>
</svg>
