<svg width="20" height="20" viewBox="0 0 20 20" fill="none" xmlns="http://www.w3.org/2000/svg">
<path d="M9.99219 1.66577C9.53219 1.66577 9.15886 2.03886 9.15886 2.49911V11.3008L6.65886 8.82745L5.48719 9.99911L9.39303 13.9316C9.71887 14.2566 10.2655 14.2566 10.5914 13.9316L14.4972 9.99911L13.3255 8.82745L10.8255 11.3008V2.49911C10.8255 2.03886 10.4522 1.66569 9.99219 1.66577ZM3.32552 11.6658C2.86552 11.6658 2.49219 12.0391 2.49219 12.4991V14.1658C2.49219 16.0066 3.98469 17.4991 5.82552 17.4991H14.1589C15.9997 17.4991 17.4922 16.0066 17.4922 14.1658V12.4991C17.4922 12.0391 17.1189 11.6658 16.6589 11.6658C16.1989 11.6658 15.8255 12.0391 15.8255 12.4991V14.1658C15.8255 15.0866 15.0797 15.8325 14.1589 15.8325H5.82552C4.90469 15.8325 4.15886 15.0866 4.15886 14.1658V12.4991C4.15886 12.0391 3.78552 11.6658 3.32552 11.6658Z" fill="white"/>
</svg>
