<svg width="20" height="20" viewBox="0 0 20 20" fill="none" xmlns="http://www.w3.org/2000/svg">
<path d="M12.4922 17.4923C14.333 17.4923 15.8255 15.9998 15.8255 14.159V11.659C15.8255 11.199 15.4522 10.8256 14.9922 10.8256C14.5322 10.8256 14.1588 11.199 14.1588 11.659V14.159C14.1588 15.0798 13.413 15.8256 12.4922 15.8256H5.82552C4.90469 15.8256 4.15885 15.0798 4.15885 14.159V7.49231C4.15885 6.57147 4.90469 5.82564 5.82552 5.82564H8.32552C8.78552 5.82564 9.15885 5.45231 9.15885 4.99231C9.15885 4.53231 8.78552 4.15897 8.32552 4.15897H5.82552C3.98469 4.15897 2.49219 5.65147 2.49219 7.49231V14.159C2.49219 15.9998 3.98469 17.4923 5.82552 17.4923H12.4922ZM9.15885 11.659C9.37218 11.659 9.59468 11.5873 9.75801 11.4248L15.8255 5.35648V8.32564H17.4922V3.32564C17.4922 2.86564 17.1188 2.49231 16.6588 2.49231H11.6588V4.15897H14.6272L8.55969 10.2265C8.23469 10.5523 8.23469 11.099 8.55969 11.4248C8.72302 11.5873 8.94552 11.659 9.15885 11.659Z" fill="white"/>
</svg>
