<svg width="40" height="40" viewBox="0 0 40 40" fill="none" xmlns="http://www.w3.org/2000/svg">
<rect width="40" height="40" rx="10.6667" fill="#FA8669"/>
<g clip-path="url(#clip0_221_101112)">
<path d="M20.6492 18.4978V27.7422H18.9248V17.8489L20.6492 18.4978Z" fill="white"/>
<path d="M13.7607 17.6355C13.7607 15.2711 15.0496 13.9822 16.5607 13.9822C18.0719 13.9822 18.2852 14.1955 20.0007 15.0577C21.7163 15.92 22.1519 16.1333 23.0141 16.1333C23.8763 16.1333 24.303 15.4844 24.303 14.1955H25.8052C26.0185 16.7733 24.5163 17.8488 23.0052 17.8488C21.4941 17.8488 21.0674 17.6355 19.5652 16.7733C18.063 15.9111 17.6274 15.6977 16.7652 15.6977C15.903 15.6977 15.4763 16.3466 15.263 17.8488L13.7607 17.6355Z" fill="white"/>
<path d="M20.0003 33.3333C12.6492 33.3333 6.66699 27.3511 6.66699 20C6.66699 12.6488 12.6492 6.66663 20.0003 6.66663C27.3514 6.66663 33.3337 12.6488 33.3337 20C33.3337 27.3511 27.3514 33.3333 20.0003 33.3333ZM20.0003 7.52885C13.1203 7.52885 7.52921 13.12 7.52921 20C7.52921 26.88 13.1203 32.4711 20.0003 32.4711C26.8803 32.4711 32.4714 26.88 32.4714 20C32.4714 13.12 26.8803 7.52885 20.0003 7.52885Z" fill="white"/>
</g>
<defs>
<clipPath id="clip0_221_101112">
<rect width="26.6667" height="26.6667" fill="white" transform="translate(6.66699 6.66663)"/>
</clipPath>
</defs>
</svg>
