<svg width="24" height="24" viewBox="0 0 24 24" fill="none" xmlns="http://www.w3.org/2000/svg">
<path d="M12.0059 2.99072C11.2619 2.99072 10.5039 3.13371 9.91187 3.42871L3.56786 6.58471C3.18686 6.79271 3.00586 7.12872 3.00586 7.49072V14.9287C3.00586 16.1297 3.83387 17.4547 4.91187 17.9907L10.1619 20.5847C11.2119 21.1057 12.7999 21.1067 13.8499 20.5847L19.0999 17.9907C20.1869 17.4507 21.0059 16.1397 21.0059 14.9287V7.49072C21.0059 7.12872 20.8229 6.76271 20.4439 6.58471L14.0999 3.42871C13.5079 3.13371 12.7499 2.99072 12.0059 2.99072ZM10.8179 5.20972C11.4419 4.89972 12.5699 4.89972 13.1939 5.20972L17.7559 7.49072L13.1939 9.74072C12.5699 10.0507 11.4419 10.0507 10.8179 9.74072C10.7479 9.70572 6.91986 7.82072 6.25586 7.49072L10.8179 5.20972ZM5.00586 9.11572C5.92786 9.57472 6.69886 9.93471 7.69386 10.4287C8.52086 10.8387 9.62887 11.3907 9.91187 11.5217C10.3459 11.7227 10.6329 11.8237 11.0059 11.8967V18.7717L5.78687 16.1787C5.38887 15.9807 5.00586 15.3677 5.00586 14.9287V9.11572ZM19.0059 9.11572V14.9287C19.0059 15.3777 18.6009 16.0067 18.1939 16.2097L13.0059 18.7717V11.8967C13.3789 11.8237 13.7599 11.7067 14.0679 11.5527L19.0059 9.11572Z" fill="#EA0A23"/>
</svg>
