<svg width="24" height="24" viewBox="0 0 24 24" fill="none" xmlns="http://www.w3.org/2000/svg">
<path d="M6.99072 2.99854C4.78162 2.99854 2.99072 4.78954 2.99072 6.99854V16.9985C2.99072 19.2075 4.78162 20.9985 6.99072 20.9985H16.9907C19.1997 20.9985 20.9907 19.2075 20.9907 16.9985V6.99854C20.9907 4.78954 19.1997 2.99854 16.9907 2.99854H6.99072ZM6.99072 4.99854H16.9907C18.0957 4.99854 18.9907 5.89354 18.9907 6.99854V16.9985C18.9907 18.1035 18.0957 18.9985 16.9907 18.9985H6.99072C5.88612 18.9985 4.99072 18.1035 4.99072 16.9985V6.99854C4.99072 5.89354 5.88612 4.99854 6.99072 4.99854ZM9.74072 8.02954C9.48982 8.07954 9.23763 8.20652 9.08453 8.43652L7.11572 11.4045C6.89182 11.7405 6.89182 12.1935 7.11572 12.5295L9.14692 15.5925C9.45332 16.0515 10.0937 16.1485 10.5527 15.8425C11.0127 15.5355 11.1407 14.9265 10.8347 14.4675L9.14692 11.9675L10.7407 9.56055C11.0467 9.10155 10.9507 8.46154 10.4907 8.15454C10.2607 8.00154 9.99172 7.97954 9.74072 8.02954ZM14.2097 8.02954C13.9587 7.97954 13.6897 8.00154 13.4597 8.15454C12.9997 8.46154 12.8717 9.10155 13.1787 9.56055L14.7717 11.9675L13.1467 14.4365C12.8407 14.8955 12.9687 15.5045 13.4287 15.8105C13.8877 16.1175 14.4967 15.9895 14.8027 15.5295L16.8347 12.5295C17.0587 12.1935 17.0587 11.7405 16.8347 11.4045L14.8347 8.43652C14.6817 8.20652 14.4607 8.07954 14.2097 8.02954Z" fill="#EA0A23"/>
</svg>
