<svg width="20" height="20" viewBox="0 0 20 20" fill="none" xmlns="http://www.w3.org/2000/svg">
<path d="M4.99886 3.25525C3.15794 3.25525 1.66553 4.74775 1.66553 6.58858V13.2552C1.66553 15.0961 3.15794 16.5886 4.99886 16.5886H14.9989C16.8398 16.5886 18.3322 15.0961 18.3322 13.2552V6.58858C18.3322 4.74775 16.8398 3.25525 14.9989 3.25525H4.99886ZM4.99886 4.92192H14.9989C15.9194 4.92192 16.6655 5.66775 16.6655 6.58858V13.2552C16.6655 14.1761 15.9194 14.9219 14.9989 14.9219H4.99886C4.07836 14.9219 3.33219 14.1761 3.33219 13.2552V6.58858C3.33219 5.66775 4.07836 4.92192 4.99886 4.92192ZM5.83219 6.58858C4.91169 6.58858 4.16553 7.33442 4.16553 8.25525V10.7552C4.16553 11.6761 4.91169 12.4219 5.83219 12.4219C6.75269 12.4219 7.49886 11.6761 7.49886 10.7552V8.25525C7.49886 7.33442 6.75269 6.58858 5.83219 6.58858ZM9.99886 6.58858C9.07836 6.58858 8.33219 7.33442 8.33219 8.25525V9.08858C8.33219 10.0094 9.07836 10.7552 9.99886 10.7552C10.9194 10.7552 11.6655 10.0094 11.6655 9.08858V8.25525C11.6655 7.33442 10.9194 6.58858 9.99886 6.58858ZM14.1655 6.58858C13.245 6.58858 12.4989 7.33442 12.4989 8.25525V11.5886C12.4989 12.5094 13.245 13.2552 14.1655 13.2552C15.086 13.2552 15.8322 12.5094 15.8322 11.5886V8.25525C15.8322 7.33442 15.086 6.58858 14.1655 6.58858Z" fill="#EA0A23"/>
</svg>
