<svg width="24" height="24" viewBox="0 0 24 24" fill="none" xmlns="http://www.w3.org/2000/svg">
<path d="M15.3892 2.50179C14.8695 2.31479 14.295 2.57579 14.108 3.09579C13.9209 3.61578 14.2133 4.18979 14.733 4.37679C16.997 5.19179 18.7846 7.01079 19.5767 9.28279C19.7585 9.80479 20.3052 10.0588 20.8267 9.87678C21.3482 9.69478 21.6335 9.14878 21.4517 8.62678C20.461 5.78479 18.2208 3.52079 15.3892 2.50179ZM5.95166 3.97078C4.26416 3.97078 2.01416 6.22077 2.01416 7.90877C2.01416 10.0828 4.26416 14.0958 6.51416 16.3458C6.75626 16.5878 7.39706 17.2288 7.63916 17.4708C9.88916 19.7208 13.9021 21.9708 16.0767 21.9708C17.7642 21.9708 20.0142 19.7208 20.0142 18.0328C20.0142 16.3458 17.7642 14.0958 16.0767 14.0958C15.5142 14.0958 13.4787 15.2598 13.2642 15.2208C11.4706 14.8968 9.13866 12.5078 8.76416 10.7208C8.71186 10.4718 9.88916 8.47077 9.88916 7.90877C9.88916 6.22077 7.63916 3.97078 5.95166 3.97078ZM13.6392 6.40877C13.4009 6.50177 13.2187 6.68678 13.108 6.93977C12.8865 7.44577 13.102 8.03079 13.608 8.25179C14.5461 8.66279 15.3041 9.40178 15.7017 10.3458C15.9161 10.8548 16.5053 11.0918 17.0142 10.8768C17.5232 10.6628 17.7599 10.1048 17.5454 9.59578C16.9488 8.17978 15.828 7.02377 14.4204 6.40877C14.1675 6.29777 13.8775 6.31477 13.6392 6.40877Z" fill="white"/>
</svg>
