<svg width="24" height="24" viewBox="0 0 24 24" fill="none" xmlns="http://www.w3.org/2000/svg">
<path d="M4.03017 8.60283C5.36017 8.14083 19.4832 3.31885 20.2032 3.06985C20.4832 2.97285 20.7642 2.91785 21.0222 2.93185C21.2582 2.94485 21.4752 3.01585 21.6562 3.16485C21.9212 3.38285 22.0052 3.65184 22.0122 3.93984C22.0192 4.20384 21.9622 4.48484 21.9202 4.75884C21.7542 5.85084 20.1702 18.1438 20.0402 18.9608C19.8872 19.9268 19.2382 20.9468 18.0422 20.9278C17.4342 20.9178 16.9692 20.7779 16.2302 20.0459C15.1092 18.9349 12.6962 16.3738 11.6032 15.1518C11.0602 14.5438 11.1052 13.7008 11.5272 13.2168C11.8012 12.9028 13.9402 10.8119 14.9302 9.76186C15.1472 9.53186 15.0182 9.18285 14.8992 9.06185C14.7842 8.94485 14.4602 8.86684 14.2662 9.02184C12.8882 10.1228 10.1062 12.2008 9.73717 12.4478C9.29117 12.7468 8.60117 12.8678 8.02517 12.7548C7.44917 12.6418 3.17617 11.9058 3.17617 11.9058C2.74117 11.8258 2.02018 11.3498 2.01418 10.4008C2.00918 9.40784 2.91917 8.98883 4.03017 8.60283Z" fill="white"/>
</svg>
