<svg width="24" height="24" viewBox="0 0 24 24" fill="none" xmlns="http://www.w3.org/2000/svg">
<path fill-rule="evenodd" clip-rule="evenodd" d="M4.232 6H1.82521C1.13754 6 1 6.32213 1 6.67723C1 7.31156 1.81597 10.4575 4.79926 14.6182C6.78813 17.4597 9.59024 19 12.1401 19C13.67 19 13.8593 18.6579 13.8593 18.0687V15.9211C13.8593 15.2368 14.0042 15.1003 14.4886 15.1003C14.8456 15.1003 15.4576 15.2779 16.8855 16.6479C18.5174 18.2716 18.7864 19 19.7043 19H22.1111C22.7988 19 23.1426 18.6579 22.9443 17.9828C22.7273 17.3099 21.9481 16.3336 20.9142 15.1764C20.3532 14.5168 19.5118 13.8064 19.2568 13.4512C18.8999 12.9945 19.0018 12.7915 19.2568 12.3857C19.2568 12.3857 22.1891 8.27562 22.4952 6.88031C22.6481 6.37283 22.4952 6 21.7673 6H19.3605C18.7486 6 18.4664 6.32213 18.3134 6.67723C18.3134 6.67723 17.0895 9.64561 15.3556 11.5738C14.7946 12.1319 14.5396 12.3095 14.2336 12.3095C14.0806 12.3095 13.8592 12.1319 13.8592 11.6246V6.88031C13.8592 6.27136 13.6816 6 13.1716 6H9.38942C9.00703 6 8.77699 6.28258 8.77699 6.55045C8.77699 7.12765 9.64393 7.26079 9.73331 8.88449V12.4111C9.73331 13.1842 9.59292 13.3244 9.28698 13.3244C8.47106 13.3244 6.48632 10.3428 5.30918 6.93101C5.07852 6.26787 4.84711 6 4.232 6Z" fill="white"/>
</svg>
