<svg width="24" height="24" viewBox="0 0 24 24" fill="none" xmlns="http://www.w3.org/2000/svg">
<g opacity="0.6">
<path d="M14.9907 20.9907C17.1997 20.9907 18.9907 19.1997 18.9907 16.9907V13.9907C18.9907 13.4387 18.5427 12.9907 17.9907 12.9907C17.4387 12.9907 16.9907 13.4387 16.9907 13.9907V16.9907C16.9907 18.0957 16.0957 18.9907 14.9907 18.9907H6.99072C5.88572 18.9907 4.99072 18.0957 4.99072 16.9907V8.99072C4.99072 7.88572 5.88572 6.99072 6.99072 6.99072H9.99072C10.5427 6.99072 10.9907 6.54272 10.9907 5.99072C10.9907 5.43872 10.5427 4.99072 9.99072 4.99072H6.99072C4.78172 4.99072 2.99072 6.78172 2.99072 8.99072V16.9907C2.99072 19.1997 4.78172 20.9907 6.99072 20.9907H14.9907ZM10.9907 13.9907C11.2467 13.9907 11.5137 13.9047 11.7097 13.7097L18.9907 6.42773V9.99072H20.9907V3.99072C20.9907 3.43872 20.5427 2.99072 19.9907 2.99072H13.9907V4.99072H17.5527L10.2717 12.2717C9.88172 12.6627 9.88172 13.3187 10.2717 13.7097C10.4677 13.9047 10.7347 13.9907 10.9907 13.9907Z" fill="white"/>
</g>
</svg>
