<svg width="28" height="28" viewBox="0 0 28 28" fill="none" xmlns="http://www.w3.org/2000/svg">
<rect width="28" height="28" rx="8" fill="#EA0A23"/>
<path d="M21.1226 18.6987C21.1228 19.154 21.0325 19.6049 20.8568 20.0256C20.681 20.4463 20.4232 20.8286 20.0982 21.1507C19.7731 21.4727 19.3872 21.7282 18.9624 21.9026C18.5376 22.0769 18.0822 22.1667 17.6224 22.1668H10.622C9.69345 22.1663 8.80313 21.8006 8.14687 21.1502C7.49062 20.4998 7.12217 19.618 7.12256 18.6987C7.12217 17.7795 7.49062 16.8977 8.14687 16.2473C8.80313 15.5969 9.69345 15.2312 10.622 15.2306H17.6224C18.0822 15.2308 18.5375 15.3207 18.9623 15.4951C19.3871 15.6695 19.773 15.925 20.098 16.247C20.423 16.5691 20.6808 16.9513 20.8566 17.372C21.0324 17.7927 21.1227 18.2435 21.1226 18.6987ZM10.4058 9.51845C10.3961 9.03804 10.4833 8.56054 10.6623 8.1139C10.8413 7.66726 11.1085 7.26046 11.4482 6.91731C11.788 6.57416 12.1935 6.30155 12.641 6.11545C13.0884 5.92935 13.5689 5.8335 14.0543 5.8335C14.5396 5.8335 15.0201 5.92935 15.4676 6.11545C15.9151 6.30155 16.3206 6.57416 16.6603 6.91731C17.0001 7.26046 17.2672 7.66726 17.4462 8.1139C17.6252 8.56054 17.7124 9.03804 17.7027 9.51845C17.7027 11.5139 16.0698 13.1333 14.0543 13.1333C13.575 13.1331 13.1004 13.0395 12.6576 12.8577C12.2149 12.6759 11.8126 12.4096 11.4738 12.0739C11.1351 11.7383 10.8664 11.3398 10.6831 10.9014C10.4999 10.4629 10.4057 9.99297 10.4058 9.51845Z" fill="white"/>
</svg>
