<svg width="110" height="32" viewBox="0 0 110 32" fill="none" xmlns="http://www.w3.org/2000/svg">
<rect width="110" height="32" rx="12" fill="white"/>
<path d="M95.2169 11.4596H98L92.9899 23.9768H90.2756L91.74 20.2672L87.5621 11.4592H90.4148L93.0595 16.9244L95.2169 11.4596ZM83.2039 20.4852C82.2862 20.4852 81.2939 20.2284 80.6943 19.57V24H78.1103V11.4596H80.6943V12.1368C81.2939 11.4776 82.2862 11.2216 83.2039 11.2216C86.0882 11.2216 87.8111 13.4736 87.8111 15.8532C87.8111 18.2324 86.0882 20.4844 83.2039 20.4844V20.4852ZM82.9791 13.5468C81.8365 13.5468 80.5817 14.3156 80.5817 15.8536C80.5817 17.3916 81.8365 18.1604 82.9791 18.1604C84.3088 18.1604 85.2261 17.0804 85.2261 15.8536C85.2261 14.6268 84.3084 13.5468 82.9791 13.5468ZM76.8321 18.3456C76.8323 18.5975 76.7816 18.8469 76.6831 19.0797C76.5845 19.3125 76.44 19.524 76.2577 19.7022C76.0754 19.8804 75.859 20.0217 75.6207 20.1182C75.3825 20.2147 75.1272 20.2643 74.8693 20.2644H70.9436C70.4229 20.2641 69.9236 20.0618 69.5556 19.7019C69.1875 19.3421 68.9809 18.8542 68.9811 18.3456C68.9809 17.837 69.1875 17.3491 69.5556 16.9893C69.9236 16.6294 70.4229 16.4271 70.9436 16.4268H74.8693C75.1272 16.4269 75.3825 16.4766 75.6207 16.5731C75.8589 16.6696 76.0753 16.811 76.2576 16.9891C76.4398 17.1673 76.5844 17.3788 76.683 17.6116C76.7815 17.8443 76.8322 18.0937 76.8321 18.3456ZM70.8224 13.2664C70.8169 13.0006 70.8658 12.7364 70.9662 12.4893C71.0666 12.2422 71.2164 12.0171 71.4069 11.8273C71.5975 11.6374 71.8248 11.4866 72.0758 11.3836C72.3267 11.2806 72.5962 11.2276 72.8683 11.2276C73.1405 11.2276 73.41 11.2806 73.6609 11.3836C73.9118 11.4866 74.1392 11.6374 74.3298 11.8273C74.5203 12.0171 74.6701 12.2422 74.7705 12.4893C74.8709 12.7364 74.9198 13.0006 74.9143 13.2664C74.9143 14.3704 73.9986 15.2664 72.8683 15.2664C72.5996 15.2663 72.3334 15.2145 72.0851 15.1139C71.8368 15.0133 71.6113 14.866 71.4213 14.6803C71.2313 14.4946 71.0806 14.2741 70.9779 14.0315C70.8751 13.7889 70.8223 13.5289 70.8224 13.2664ZM58.4625 11.4596H61.0466V16.768L65.1107 11.4592H67.6948V20.2468H65.1107V14.9384L61.0466 20.2472H58.4625V11.4592V11.4596ZM49.1737 8H51.7578V11.46H52.5068C55.2785 11.46 57.3195 13.3276 57.3195 15.8536C57.3195 18.5632 55.4091 20.2472 52.5252 20.2472H51.7566V23.982H49.1725V20.2472H48.4046C45.5019 20.2472 43.6296 18.5632 43.6296 15.8536C43.6296 13.3276 45.6522 11.46 48.4423 11.46H49.1725V8H49.1737ZM48.3682 13.6568C47.0008 13.6568 46.2145 14.5356 46.2145 15.8536C46.2145 17.1716 46.9451 18.0504 48.3866 18.0504H49.1729V13.6568H48.3682ZM51.7586 13.6568V18.0504H52.5637C54.0057 18.0504 54.7363 17.1164 54.7363 15.8536C54.7363 14.5908 53.9307 13.6568 52.5637 13.6568H51.7586ZM42.9567 15.872C42.9567 18.6 40.7277 20.4852 38.0498 20.4852C35.3715 20.4852 33.1245 18.5444 33.1245 15.8716C33.1245 13.1988 35.3154 11.2216 38.0306 11.2216C40.7457 11.2216 42.9559 13.1624 42.9559 15.8716L42.9567 15.872ZM36.3826 14.1696C35.8957 14.6456 35.7082 15.2128 35.7082 15.8724C35.7082 17.2272 36.7004 18.1604 38.049 18.1604C39.3971 18.1604 40.371 17.1716 40.371 15.8724C40.371 15.5244 40.3153 15.2128 40.2031 14.9204C39.941 14.3344 39.5474 13.9864 38.9671 13.7124C38.674 13.603 38.3628 13.5472 38.049 13.5476C37.3745 13.5476 36.8876 13.7488 36.3822 14.1704L36.3826 14.1696ZM27.8437 20.4852C26.9255 20.4852 25.9332 20.2284 25.3337 19.57V24H22.7496V11.4596H25.3337V12.1368C25.9332 11.4776 26.9255 11.2216 27.8437 11.2216C30.7275 11.2216 32.4504 13.4736 32.4504 15.8532C32.4504 18.2324 30.7275 20.4844 27.8432 20.4844L27.8437 20.4852ZM27.6184 13.5468C26.4758 13.5468 25.2211 14.3156 25.2211 15.8536C25.2211 17.3916 26.4763 18.1604 27.6184 18.1604C28.9486 18.1604 29.8655 17.0804 29.8655 15.8536C29.8655 14.6268 28.9477 13.5468 27.6184 13.5468ZM21.1021 11.4596V20.2472H18.518V13.656H14.5849V20.2468H12V11.4592H21.1021V11.4596Z" fill="#121212"/>
</svg>
