<svg width="28" height="28" viewBox="0 0 28 28" fill="none" xmlns="http://www.w3.org/2000/svg">
<path d="M14.0279 2.84814C13.3619 2.84791 12.6817 3.26232 12.2788 4.08715L9.80096 9.18863L4.15289 9.99025C2.33651 10.2429 1.74804 12.0249 3.05973 13.3059L7.14084 17.2784L6.19351 22.8539C5.88154 24.6587 7.3785 25.7496 8.99935 24.8944C9.62561 24.5631 12.8457 22.8947 14.0279 22.2706L19.0565 24.8944C20.6792 25.7496 22.1808 24.6599 21.8623 22.8539L20.8785 17.2784L24.9597 13.3059C26.2776 12.0296 25.7194 10.2481 23.9029 9.99025L18.2185 9.18863L15.777 4.08715C15.3747 3.26197 14.694 2.84849 14.0279 2.84814Z" fill="#EAA30A"/>
</svg>
