<svg width="86" height="14" viewBox="0 0 86 14" fill="none" xmlns="http://www.w3.org/2000/svg">
<path d="M7.01371 1.42432C6.68069 1.4242 6.3406 1.6314 6.13918 2.04382L4.90024 4.59456L2.0762 4.99537C1.16801 5.12172 0.873778 6.0127 1.52962 6.6532L3.57018 8.63945L3.09651 11.4272C2.94053 12.3296 3.689 12.875 4.49943 12.4475C4.81256 12.2818 6.42262 11.4476 7.01371 11.1355L9.52799 12.4475C10.3394 12.875 11.0902 12.3302 10.9309 11.4272L10.439 8.63945L12.4796 6.6532C13.1385 6.01504 12.8595 5.12428 11.9512 4.99537L9.10898 4.59456L7.88824 2.04382C7.68711 1.63123 7.34674 1.42449 7.01371 1.42432Z" fill="#EAA30A"/>
<path d="M25.0137 1.42432C24.6807 1.4242 24.3406 1.6314 24.1392 2.04382L22.9002 4.59456L20.0762 4.99537C19.168 5.12172 18.8738 6.0127 19.5296 6.6532L21.5702 8.63945L21.0965 11.4272C20.9405 12.3296 21.689 12.875 22.4994 12.4475C22.8126 12.2818 24.4226 11.4476 25.0137 11.1355L27.528 12.4475C28.3394 12.875 29.0902 12.3302 28.9309 11.4272L28.439 8.63945L30.4796 6.6532C31.1385 6.01504 30.8595 5.12428 29.9512 4.99537L27.109 4.59456L25.8882 2.04382C25.6871 1.63123 25.3467 1.42449 25.0137 1.42432Z" fill="#EAA30A"/>
<path d="M43.0137 1.42432C42.6807 1.4242 42.3406 1.6314 42.1392 2.04382L40.9002 4.59456L38.0762 4.99537C37.168 5.12172 36.8738 6.0127 37.5296 6.6532L39.5702 8.63945L39.0965 11.4272C38.9405 12.3296 39.689 12.875 40.4994 12.4475C40.8126 12.2818 42.4226 11.4476 43.0137 11.1355L45.528 12.4475C46.3394 12.875 47.0902 12.3302 46.9309 11.4272L46.439 8.63945L48.4796 6.6532C49.1385 6.01504 48.8595 5.12428 47.9512 4.99537L45.109 4.59456L43.8882 2.04382C43.6871 1.63123 43.3467 1.42449 43.0137 1.42432Z" fill="#EAA30A"/>
<path d="M61.0137 1.42432C60.6807 1.4242 60.3406 1.6314 60.1392 2.04382L58.9002 4.59456L56.0762 4.99537C55.168 5.12172 54.8738 6.0127 55.5296 6.6532L57.5702 8.63945L57.0965 11.4272C56.9405 12.3296 57.689 12.875 58.4994 12.4475C58.8126 12.2818 60.4226 11.4476 61.0137 11.1355L63.528 12.4475C64.3394 12.875 65.0902 12.3302 64.9309 11.4272L64.439 8.63945L66.4796 6.6532C67.1385 6.01504 66.8595 5.12428 65.9512 4.99537L63.109 4.59456L61.8882 2.04382C61.6871 1.63123 61.3467 1.42449 61.0137 1.42432Z" fill="#EAA30A"/>
<path d="M79.0137 1.42432C78.6807 1.4242 78.3406 1.6314 78.1392 2.04382L76.9002 4.59456L74.0762 4.99537C73.168 5.12172 72.8738 6.0127 73.5296 6.6532L75.5702 8.63945L75.0965 11.4272C74.9405 12.3296 75.689 12.875 76.4994 12.4475C76.8126 12.2818 78.4226 11.4476 79.0137 11.1355L81.528 12.4475C82.3394 12.875 83.0902 12.3302 82.9309 11.4272L82.439 8.63945L84.4796 6.6532C85.1385 6.01504 84.8595 5.12428 83.9512 4.99537L81.109 4.59456L79.8882 2.04382C79.6871 1.63123 79.3467 1.42449 79.0137 1.42432Z" fill="#EAA30A"/>
</svg>
