<svg width="20" height="20" viewBox="0 0 20 20" fill="none" xmlns="http://www.w3.org/2000/svg">
<path d="M12.4922 17.4922C14.333 17.4922 15.8255 15.9997 15.8255 14.1588V11.6588C15.8255 11.1988 15.4522 10.8255 14.9922 10.8255C14.5322 10.8255 14.1588 11.1988 14.1588 11.6588V14.1588C14.1588 15.0797 13.413 15.8255 12.4922 15.8255H5.82552C4.90469 15.8255 4.15885 15.0797 4.15885 14.1588V7.49218C4.15885 6.57135 4.90469 5.82552 5.82552 5.82552H8.32552C8.78552 5.82552 9.15885 5.45219 9.15885 4.99219C9.15885 4.53219 8.78552 4.15885 8.32552 4.15885H5.82552C3.98469 4.15885 2.49219 5.65135 2.49219 7.49218V14.1588C2.49219 15.9997 3.98469 17.4922 5.82552 17.4922H12.4922ZM9.15885 11.6588C9.37218 11.6588 9.59468 11.5872 9.75801 11.4247L15.8255 5.35636V8.32552H17.4922V3.32552C17.4922 2.86552 17.1188 2.49219 16.6588 2.49219H11.6588V4.15885H14.6272L8.55969 10.2264C8.23469 10.5522 8.23469 11.0988 8.55969 11.4247C8.72302 11.5872 8.94552 11.6588 9.15885 11.6588Z" fill="#EA0A23"/>
</svg>
