<svg width="28" height="28" viewBox="0 0 28 28" fill="none" xmlns="http://www.w3.org/2000/svg">
<path d="M17.4893 24.4892C20.0664 24.4892 22.1559 22.3997 22.1559 19.8226V16.3226C22.1559 15.6786 21.6333 15.1559 20.9893 15.1559C20.3453 15.1559 19.8226 15.6786 19.8226 16.3226V19.8226C19.8226 21.1117 18.7784 22.1559 17.4893 22.1559H8.15592C6.86676 22.1559 5.82259 21.1117 5.82259 19.8226V10.4893C5.82259 9.20009 6.86676 8.15592 8.15592 8.15592H11.6559C12.2999 8.15592 12.8226 7.63325 12.8226 6.98925C12.8226 6.34526 12.2999 5.82259 11.6559 5.82259H8.15592C5.57876 5.82259 3.48926 7.91209 3.48926 10.4893V19.8226C3.48926 22.3997 5.57876 24.4892 8.15592 24.4892H17.4893ZM12.8226 16.3226C13.1213 16.3226 13.4327 16.2222 13.6614 15.9947L22.1559 7.4991V11.6559H24.4893V4.65592C24.4893 4.01192 23.9666 3.48926 23.3226 3.48926H16.3226V5.82259H20.4783L11.9838 14.3171C11.5288 14.7733 11.5288 15.5386 11.9838 15.9947C12.2124 16.2222 12.5239 16.3226 12.8226 16.3226Z" fill="#636363"/>
</svg>
