<svg width="48" height="48" viewBox="0 0 48 48" fill="none" xmlns="http://www.w3.org/2000/svg">
<rect width="48" height="48" rx="12.8" fill="#262626"/>
<g clip-path="url(#clip0_175_9569)">
<path d="M19.2014 38.4C21.8505 38.4 24.0004 36.2496 24.0004 33.6V28.8H19.2014C16.5523 28.8 14.4023 30.9504 14.4023 33.6C14.4023 36.2496 16.5523 38.4 19.2014 38.4Z" fill="#0ACF83"/>
<path d="M14.4023 24C14.4023 21.3504 16.5523 19.2 19.2014 19.2H24.0004V28.8H19.2014C16.5523 28.8 14.4023 26.6496 14.4023 24Z" fill="#A259FF"/>
<path d="M14.4023 14.4001C14.4023 11.7505 16.5523 9.6001 19.2014 9.6001H24.0004V19.2001H19.2014C16.5523 19.2001 14.4023 17.0497 14.4023 14.4001Z" fill="#F24E1E"/>
<path d="M24 9.6001H28.799C31.4481 9.6001 33.5981 11.7505 33.5981 14.4001C33.5981 17.0497 31.4481 19.2001 28.799 19.2001H24V9.6001Z" fill="#FF7262"/>
<path d="M33.5981 24C33.5981 26.6496 31.4481 28.8 28.799 28.8C26.15 28.8 24 26.6496 24 24C24 21.3504 26.15 19.2 28.799 19.2C31.4481 19.2 33.5981 21.3504 33.5981 24Z" fill="#1ABCFE"/>
</g>
<defs>
<clipPath id="clip0_175_9569">
<rect width="19.2" height="28.8" fill="white" transform="translate(14.4004 9.6001)"/>
</clipPath>
</defs>
</svg>
