<svg width="48" height="48" viewBox="0 0 48 48" fill="none" xmlns="http://www.w3.org/2000/svg">
<rect width="48" height="48" rx="12.8" fill="white"/>
<path fill-rule="evenodd" clip-rule="evenodd" d="M35.9404 13.7327L36.0568 13.8301L36.0601 13.8273C38.3008 15.7265 37.6583 19.5424 34.4092 23.8685L40.7997 29.2656L40.5251 29.7172C39.4511 31.4862 37.9966 33.0711 36.2359 34.3909C33.9168 36.1388 31.1177 37.3704 28.0923 37.9742L27.9825 37.9964L27.8254 38.028L27.7123 38.0493L27.463 38.0957C27.3943 38.1078 27.3255 38.1192 27.2565 38.13L27.1016 38.155C26.9368 38.1828 26.7644 38.2088 26.5963 38.2329L26.4557 38.2505L26.3492 38.2616C26.1965 38.2793 26.0482 38.295 25.8966 38.3099C23.3778 38.5494 20.8273 38.3106 18.4318 37.6109C16.0363 36.9112 13.8563 35.7683 12.0513 34.2658L11.9459 34.1795C9.70076 32.2803 10.3367 28.4616 13.5902 24.1328L7.19971 18.7357L7.47431 18.284C8.54642 16.5143 10.0025 14.9302 11.7668 13.614C13.5698 12.2597 15.6639 11.2102 17.9355 10.5222C18.4627 10.3618 19.0141 10.2218 19.5556 10.1031C20.0019 10.0024 20.453 9.91732 20.9077 9.84807C21.0615 9.82211 21.235 9.79521 21.4031 9.7711C24.0244 9.42608 26.7049 9.60474 29.2296 10.2927C31.7543 10.9807 34.0527 12.1589 35.9404 13.7327ZM33.7798 13.9645H33.7733L33.7798 13.9673C31.6083 13.3998 28.1626 14.3169 24.5203 16.3431C27.2916 15.6912 29.9717 16.0288 31.7039 17.4921C33.3449 18.8803 33.7941 20.9872 33.1724 23.2008C33.1439 23.3195 33.1065 23.4382 33.0626 23.5597C36.036 19.7622 36.9872 16.2096 35.1045 14.6229C35.073 14.5948 35.04 14.5679 35.0057 14.5422L34.9914 14.5311L34.9705 14.5154C34.9492 14.5022 34.9283 14.4886 34.9079 14.4746C34.8804 14.456 34.853 14.4375 34.8233 14.4208L34.7772 14.3929C34.4767 14.2023 34.1392 14.0573 33.7798 13.9645ZM32.2893 22.5006C31.906 24.4314 30.6417 26.3825 28.725 27.9988C26.8138 29.6161 24.4984 30.6844 22.2082 31.0108C20.0652 31.3168 18.2166 30.9181 17.0051 29.898C15.7969 28.877 15.3246 27.3219 15.687 25.5034C16.0704 23.5745 17.3313 21.6225 19.2392 20.008C19.2392 20.008 19.2425 20.008 19.2502 19.9987L19.2568 19.9894C21.1713 18.3833 23.478 17.3178 25.7626 16.995C27.9056 16.689 29.7498 17.0859 30.9657 18.1079C32.174 19.1279 32.6463 20.6858 32.2838 22.5016L32.2893 22.5006ZM12.8696 14.6554C11.4111 15.7452 10.1828 17.0365 9.23724 18.4742L9.22625 18.4769L14.771 23.147C15.2235 22.6101 15.7046 22.0787 16.2209 21.5538C16.401 21.373 16.5866 21.1857 16.7766 20.9993L16.8491 20.9297L17.1128 20.6812C17.1204 20.6756 17.1281 20.6636 17.1281 20.6636L17.1765 20.6172L17.2017 20.5922C17.2475 20.5498 17.2929 20.5071 17.3379 20.4642C17.4082 20.3984 17.4785 20.3307 17.5532 20.2667C17.5532 20.2602 17.5642 20.2509 17.5642 20.2509L17.6828 20.1415C17.712 20.1175 17.7402 20.0928 17.7674 20.0673C17.7707 20.0617 17.774 20.0618 17.774 20.0618C17.7817 20.058 17.7817 20.0525 17.7817 20.0525C17.7861 20.0478 17.7927 20.0423 17.7971 20.0358C17.8018 20.0303 17.8069 20.025 17.8124 20.02C17.826 20.0115 17.8382 20.0015 17.8487 19.9903C17.8554 19.984 17.8624 19.9778 17.8695 19.9718C17.9146 19.9338 17.9684 19.8893 18.0167 19.8448C18.0409 19.8179 18.0728 19.7919 18.1046 19.765L18.1496 19.7261C18.1573 19.7168 18.1782 19.6992 18.1782 19.6992L18.2628 19.6287L18.4275 19.4914L18.4825 19.4423L18.544 19.3876C19.7318 18.3822 21.0005 17.4474 22.3411 16.5898L22.5169 16.4813L22.5202 16.4795L22.6959 16.37C22.8936 16.2458 23.0891 16.1243 23.289 16.0056C23.501 15.8841 23.7152 15.7617 23.9261 15.6439C26.8061 14.0229 29.6268 13.0502 31.929 12.8573C28.849 11.2885 25.2135 10.6844 21.659 11.151C21.5052 11.1714 21.3581 11.1927 21.1999 11.2196C21.0999 11.2344 21.0132 11.2493 20.9253 11.2641L20.8726 11.2734C20.0654 11.4143 19.2708 11.6024 18.4945 11.8363C16.423 12.4626 14.5126 13.4197 12.8696 14.6554ZM13.175 33.5805C13.4814 33.7789 13.8329 33.9273 14.2262 34.0311H14.2185C16.4043 34.595 19.8368 33.675 23.4659 31.6544C20.6979 32.3035 18.0233 31.966 16.2911 30.5026C14.6578 29.1209 14.2086 27.0075 14.827 24.7939C14.8588 24.6752 14.8929 24.5565 14.9357 24.4351C11.9635 28.2334 11.0144 31.7851 12.8949 33.3727C12.9366 33.408 12.9828 33.4432 13.0311 33.4794C13.0772 33.5146 13.1234 33.5471 13.175 33.5805ZM38.7589 29.528C37.8121 30.9635 36.5847 32.2556 35.1287 33.3458C32.9497 34.9808 30.3147 36.1218 27.4706 36.662L27.4355 36.6694L27.341 36.688C27.2342 36.7121 27.1261 36.7319 27.017 36.7473C26.9456 36.7603 26.8742 36.7723 26.7995 36.7816C26.6465 36.8069 26.4927 36.8285 26.3382 36.8465L26.2097 36.8651L26.0636 36.8808C25.9461 36.8938 25.8274 36.9077 25.7033 36.9179C22.3497 37.2371 18.965 36.6135 16.0737 35.1439C18.2902 34.9594 20.989 34.046 23.757 32.5353L23.9151 32.4482L24.0733 32.3601L24.2886 32.2377L24.706 31.9984C24.9059 31.8797 25.1058 31.7582 25.2991 31.634C25.4221 31.5598 25.5386 31.4884 25.6572 31.4142C26.9968 30.5549 28.2658 29.6198 29.4554 28.6155C29.484 28.5914 29.5104 28.5663 29.5356 28.5432L29.5686 28.5116C29.6279 28.4653 29.6806 28.4198 29.7333 28.3753L29.8168 28.3048C29.8168 28.3048 29.8388 28.2863 29.8421 28.277C29.8531 28.2696 29.8641 28.2603 29.8739 28.2511C29.8782 28.247 29.8826 28.2429 29.8871 28.239L29.9827 28.1592L30.0563 28.0943C30.0804 28.0749 30.1057 28.0535 30.1299 28.0313C30.1367 28.0253 30.1433 28.0191 30.1496 28.0127C30.1602 28.0019 30.1724 27.9922 30.1859 27.984C30.1918 27.9787 30.1973 27.9732 30.2024 27.9673C30.2071 27.9618 30.2122 27.9565 30.2177 27.9515C30.2177 27.9515 30.2287 27.9423 30.2353 27.9395C30.2454 27.9307 30.2553 27.9217 30.265 27.9126L30.2946 27.8857L30.3232 27.8625C30.2913 27.8894 30.2639 27.9181 30.2353 27.9478L30.3034 27.8875C30.3517 27.8449 30.399 27.8013 30.4462 27.7614C30.4462 27.7614 30.4462 27.7521 30.4572 27.7521C30.522 27.6937 30.5835 27.6353 30.645 27.576L30.7691 27.4591C30.7847 27.4493 30.7977 27.437 30.8076 27.4229L30.8779 27.3515L30.8955 27.3339C30.9822 27.257 31.0635 27.1781 31.147 27.0993L31.2327 27.0158C31.37 26.8814 31.5073 26.7432 31.6435 26.6069L31.8082 26.4409L31.8598 26.3871C31.9257 26.3176 31.9906 26.2489 32.0554 26.1831C32.1103 26.1275 32.1641 26.07 32.2168 26.0125C32.568 25.6369 32.9086 25.2545 33.2383 24.8653L38.7589 29.528ZM38.7589 29.528L38.7655 29.5206V29.5354L38.7589 29.528Z" fill="#262626"/>
</svg>
