<svg width="48" height="48" viewBox="0 0 48 48" fill="none" xmlns="http://www.w3.org/2000/svg">
<rect width="48" height="48" rx="12.8" fill="#FA8669"/>
<g clip-path="url(#clip0_175_9588)">
<path d="M24.7788 22.1974V33.2907H22.7095V21.4187L24.7788 22.1974Z" fill="white"/>
<path d="M16.5122 21.1626C16.5122 18.3252 18.0589 16.7786 19.8722 16.7786C21.6855 16.7786 21.9415 17.0346 24.0002 18.0692C26.0589 19.1039 26.5815 19.3599 27.6162 19.3599C28.6509 19.3599 29.1629 18.5812 29.1629 17.0346H30.9655C31.2215 20.1279 29.4189 21.4186 27.6055 21.4186C25.7922 21.4186 25.2802 21.1626 23.4775 20.1279C21.6749 19.0932 21.1522 18.8372 20.1175 18.8372C19.0829 18.8372 18.5709 19.6159 18.3149 21.4186L16.5122 21.1626Z" fill="white"/>
<path d="M24 40C15.1787 40 8 32.8213 8 24C8 15.1787 15.1787 8 24 8C32.8213 8 40 15.1787 40 24C40 32.8213 32.8213 40 24 40ZM24 9.03467C15.744 9.03467 9.03467 15.744 9.03467 24C9.03467 32.256 15.744 38.9653 24 38.9653C32.256 38.9653 38.9653 32.256 38.9653 24C38.9653 15.744 32.256 9.03467 24 9.03467Z" fill="white"/>
</g>
<defs>
<clipPath id="clip0_175_9588">
<rect width="32" height="32" fill="white" transform="translate(8 8)"/>
</clipPath>
</defs>
</svg>
